<mxfile host="Electron" modified="2023-08-19T05:35:24.177Z" agent="Mozilla/5.0 (Macintosh; Intel Mac OS X 10_15_7) AppleWebKit/537.36 (KHTML, like Gecko) draw.io/21.6.8 Chrome/114.0.5735.289 Electron/25.5.0 Safari/537.36" etag="_4Gxz0mET6qVWO_4afub" version="21.6.8" type="device">
  <diagram name="Page-1" id="4mFLurpTBYpLGZBFoFjS">
    <mxGraphModel dx="1400" dy="979" grid="1" gridSize="10" guides="1" tooltips="1" connect="1" arrows="1" fold="1" page="1" pageScale="1" pageWidth="1169" pageHeight="827" math="0" shadow="0">
      <root>
        <mxCell id="0" />
        <mxCell id="1" parent="0" />
        <mxCell id="7IxAQgNToezBiFUi0bHz-11" value="Instance n" style="rounded=0;whiteSpace=wrap;html=1;strokeWidth=2;fontFamily=Roboto;fillColor=none;verticalAlign=top;fontSize=14;spacing=3;" vertex="1" parent="1">
          <mxGeometry x="350" y="395" width="150" height="240" as="geometry" />
        </mxCell>
        <mxCell id="7IxAQgNToezBiFUi0bHz-10" value="Instance 1" style="rounded=0;whiteSpace=wrap;html=1;strokeWidth=2;fontFamily=Roboto;fillColor=none;verticalAlign=top;fontSize=14;spacing=3;" vertex="1" parent="1">
          <mxGeometry x="350" y="115" width="150" height="240" as="geometry" />
        </mxCell>
        <mxCell id="cye6MK2p7TntERCzml5D-4" value="Agent" style="rounded=0;whiteSpace=wrap;html=1;strokeWidth=2;fontFamily=Roboto;fillColor=none;fontSize=14;" parent="1" vertex="1">
          <mxGeometry x="370" y="270" width="110" height="30" as="geometry" />
        </mxCell>
        <mxCell id="cye6MK2p7TntERCzml5D-16" value="Cloud manager" style="rounded=0;whiteSpace=wrap;html=1;strokeWidth=2;fontFamily=Roboto;fillColor=none;fontSize=14;" parent="1" vertex="1">
          <mxGeometry x="370" y="310" width="110" height="30" as="geometry" />
        </mxCell>
        <mxCell id="7IxAQgNToezBiFUi0bHz-2" value="Scheduler" style="rounded=0;whiteSpace=wrap;html=1;strokeWidth=2;fontFamily=Roboto;fillColor=none;fontSize=14;" vertex="1" parent="1">
          <mxGeometry x="370" y="230" width="110" height="30" as="geometry" />
        </mxCell>
        <mxCell id="7IxAQgNToezBiFUi0bHz-3" value="Controller" style="rounded=0;whiteSpace=wrap;html=1;strokeWidth=2;fontFamily=Roboto;fillColor=none;fontSize=14;" vertex="1" parent="1">
          <mxGeometry x="370" y="190" width="110" height="30" as="geometry" />
        </mxCell>
        <mxCell id="7IxAQgNToezBiFUi0bHz-4" value="HTTP server" style="rounded=0;whiteSpace=wrap;html=1;strokeWidth=2;fontFamily=Roboto;fillColor=none;fontSize=14;" vertex="1" parent="1">
          <mxGeometry x="370" y="150" width="110" height="30" as="geometry" />
        </mxCell>
        <mxCell id="7IxAQgNToezBiFUi0bHz-5" value="Agent" style="rounded=0;whiteSpace=wrap;html=1;strokeWidth=2;fontFamily=Roboto;fillColor=none;fontSize=14;" vertex="1" parent="1">
          <mxGeometry x="370" y="550" width="110" height="30" as="geometry" />
        </mxCell>
        <mxCell id="7IxAQgNToezBiFUi0bHz-6" value="Cloud manager" style="rounded=0;whiteSpace=wrap;html=1;strokeWidth=2;fontFamily=Roboto;fillColor=none;fontSize=14;" vertex="1" parent="1">
          <mxGeometry x="370" y="590" width="110" height="30" as="geometry" />
        </mxCell>
        <mxCell id="7IxAQgNToezBiFUi0bHz-7" value="Scheduler" style="rounded=0;whiteSpace=wrap;html=1;strokeWidth=2;fontFamily=Roboto;fillColor=none;fontSize=14;" vertex="1" parent="1">
          <mxGeometry x="370" y="510" width="110" height="30" as="geometry" />
        </mxCell>
        <mxCell id="7IxAQgNToezBiFUi0bHz-8" value="Controller" style="rounded=0;whiteSpace=wrap;html=1;strokeWidth=2;fontFamily=Roboto;fillColor=none;fontSize=14;" vertex="1" parent="1">
          <mxGeometry x="370" y="470" width="110" height="30" as="geometry" />
        </mxCell>
        <mxCell id="7IxAQgNToezBiFUi0bHz-9" value="HTTP server" style="rounded=0;whiteSpace=wrap;html=1;strokeWidth=2;fontFamily=Roboto;fillColor=none;fontSize=14;" vertex="1" parent="1">
          <mxGeometry x="370" y="430" width="110" height="30" as="geometry" />
        </mxCell>
        <mxCell id="7IxAQgNToezBiFUi0bHz-16" value="" style="group;fontSize=14;" vertex="1" connectable="0" parent="1">
          <mxGeometry x="423" y="365" width="4" height="20" as="geometry" />
        </mxCell>
        <mxCell id="7IxAQgNToezBiFUi0bHz-13" value="" style="ellipse;whiteSpace=wrap;html=1;aspect=fixed;strokeColor=none;fillColor=#000000;fontSize=14;" vertex="1" parent="7IxAQgNToezBiFUi0bHz-16">
          <mxGeometry width="4" height="4" as="geometry" />
        </mxCell>
        <mxCell id="7IxAQgNToezBiFUi0bHz-14" value="" style="ellipse;whiteSpace=wrap;html=1;aspect=fixed;strokeColor=none;fillColor=#000000;fontSize=14;" vertex="1" parent="7IxAQgNToezBiFUi0bHz-16">
          <mxGeometry y="8" width="4" height="4" as="geometry" />
        </mxCell>
        <mxCell id="7IxAQgNToezBiFUi0bHz-15" value="" style="ellipse;whiteSpace=wrap;html=1;aspect=fixed;strokeColor=none;fillColor=#000000;fontSize=14;" vertex="1" parent="7IxAQgNToezBiFUi0bHz-16">
          <mxGeometry y="16" width="4" height="4" as="geometry" />
        </mxCell>
        <mxCell id="7IxAQgNToezBiFUi0bHz-18" value="Event bus" style="rounded=1;whiteSpace=wrap;html=1;arcSize=45;strokeWidth=2;fontFamily=Roboto;rotation=90;fillColor=none;glass=0;fontSize=14;" vertex="1" parent="1">
          <mxGeometry x="280" y="355" width="520" height="40" as="geometry" />
        </mxCell>
        <mxCell id="7IxAQgNToezBiFUi0bHz-19" value="Database" style="rounded=1;whiteSpace=wrap;html=1;arcSize=45;strokeWidth=2;fontFamily=Roboto;rotation=270;fillColor=none;fontSize=14;" vertex="1" parent="1">
          <mxGeometry x="49.75" y="355.25" width="520.5" height="40" as="geometry" />
        </mxCell>
        <mxCell id="7IxAQgNToezBiFUi0bHz-27" value="" style="endArrow=classic;startArrow=classic;html=1;rounded=0;fontSize=14;" edge="1" parent="1">
          <mxGeometry width="50" height="50" relative="1" as="geometry">
            <mxPoint x="480" y="164.73" as="sourcePoint" />
            <mxPoint x="520" y="164.73" as="targetPoint" />
          </mxGeometry>
        </mxCell>
        <mxCell id="7IxAQgNToezBiFUi0bHz-28" value="" style="endArrow=classic;startArrow=classic;html=1;rounded=0;fontSize=14;" edge="1" parent="1">
          <mxGeometry width="50" height="50" relative="1" as="geometry">
            <mxPoint x="480" y="204.73" as="sourcePoint" />
            <mxPoint x="520" y="204.73" as="targetPoint" />
          </mxGeometry>
        </mxCell>
        <mxCell id="7IxAQgNToezBiFUi0bHz-29" value="" style="endArrow=classic;startArrow=classic;html=1;rounded=0;fontSize=14;" edge="1" parent="1">
          <mxGeometry width="50" height="50" relative="1" as="geometry">
            <mxPoint x="480" y="244.73" as="sourcePoint" />
            <mxPoint x="520" y="244.73" as="targetPoint" />
          </mxGeometry>
        </mxCell>
        <mxCell id="7IxAQgNToezBiFUi0bHz-30" value="" style="endArrow=classic;startArrow=classic;html=1;rounded=0;fontSize=14;" edge="1" parent="1">
          <mxGeometry width="50" height="50" relative="1" as="geometry">
            <mxPoint x="480" y="284.73" as="sourcePoint" />
            <mxPoint x="520" y="284.73" as="targetPoint" />
          </mxGeometry>
        </mxCell>
        <mxCell id="7IxAQgNToezBiFUi0bHz-31" value="" style="endArrow=classic;startArrow=classic;html=1;rounded=0;fontSize=14;" edge="1" parent="1">
          <mxGeometry width="50" height="50" relative="1" as="geometry">
            <mxPoint x="480" y="324.73" as="sourcePoint" />
            <mxPoint x="520" y="324.73" as="targetPoint" />
          </mxGeometry>
        </mxCell>
        <mxCell id="7IxAQgNToezBiFUi0bHz-32" value="" style="endArrow=classic;startArrow=classic;html=1;rounded=0;fontSize=14;" edge="1" parent="1">
          <mxGeometry width="50" height="50" relative="1" as="geometry">
            <mxPoint x="330" y="164.73000000000002" as="sourcePoint" />
            <mxPoint x="370" y="164.73000000000002" as="targetPoint" />
          </mxGeometry>
        </mxCell>
        <mxCell id="7IxAQgNToezBiFUi0bHz-33" value="" style="endArrow=classic;startArrow=classic;html=1;rounded=0;fontSize=14;" edge="1" parent="1">
          <mxGeometry width="50" height="50" relative="1" as="geometry">
            <mxPoint x="330" y="204.73" as="sourcePoint" />
            <mxPoint x="370" y="204.73" as="targetPoint" />
          </mxGeometry>
        </mxCell>
        <mxCell id="7IxAQgNToezBiFUi0bHz-34" value="" style="endArrow=classic;startArrow=classic;html=1;rounded=0;fontSize=14;" edge="1" parent="1">
          <mxGeometry width="50" height="50" relative="1" as="geometry">
            <mxPoint x="330" y="244.73" as="sourcePoint" />
            <mxPoint x="370" y="244.73" as="targetPoint" />
          </mxGeometry>
        </mxCell>
        <mxCell id="7IxAQgNToezBiFUi0bHz-35" value="" style="endArrow=classic;startArrow=classic;html=1;rounded=0;fontSize=14;" edge="1" parent="1">
          <mxGeometry width="50" height="50" relative="1" as="geometry">
            <mxPoint x="480" y="444.73" as="sourcePoint" />
            <mxPoint x="520" y="444.73" as="targetPoint" />
          </mxGeometry>
        </mxCell>
        <mxCell id="7IxAQgNToezBiFUi0bHz-36" value="" style="endArrow=classic;startArrow=classic;html=1;rounded=0;fontSize=14;" edge="1" parent="1">
          <mxGeometry width="50" height="50" relative="1" as="geometry">
            <mxPoint x="480" y="484.73" as="sourcePoint" />
            <mxPoint x="520" y="484.73" as="targetPoint" />
          </mxGeometry>
        </mxCell>
        <mxCell id="7IxAQgNToezBiFUi0bHz-37" value="" style="endArrow=classic;startArrow=classic;html=1;rounded=0;fontSize=14;" edge="1" parent="1">
          <mxGeometry width="50" height="50" relative="1" as="geometry">
            <mxPoint x="480" y="524.73" as="sourcePoint" />
            <mxPoint x="520" y="524.73" as="targetPoint" />
          </mxGeometry>
        </mxCell>
        <mxCell id="7IxAQgNToezBiFUi0bHz-38" value="" style="endArrow=classic;startArrow=classic;html=1;rounded=0;fontSize=14;" edge="1" parent="1">
          <mxGeometry width="50" height="50" relative="1" as="geometry">
            <mxPoint x="480" y="564.73" as="sourcePoint" />
            <mxPoint x="520" y="564.73" as="targetPoint" />
          </mxGeometry>
        </mxCell>
        <mxCell id="7IxAQgNToezBiFUi0bHz-39" value="" style="endArrow=classic;startArrow=classic;html=1;rounded=0;fontSize=14;" edge="1" parent="1">
          <mxGeometry width="50" height="50" relative="1" as="geometry">
            <mxPoint x="480" y="604.73" as="sourcePoint" />
            <mxPoint x="520" y="604.73" as="targetPoint" />
          </mxGeometry>
        </mxCell>
        <mxCell id="7IxAQgNToezBiFUi0bHz-40" value="" style="endArrow=classic;startArrow=classic;html=1;rounded=0;fontSize=14;" edge="1" parent="1">
          <mxGeometry width="50" height="50" relative="1" as="geometry">
            <mxPoint x="330" y="444.73" as="sourcePoint" />
            <mxPoint x="370" y="444.73" as="targetPoint" />
          </mxGeometry>
        </mxCell>
        <mxCell id="7IxAQgNToezBiFUi0bHz-41" value="" style="endArrow=classic;startArrow=classic;html=1;rounded=0;fontSize=14;" edge="1" parent="1">
          <mxGeometry width="50" height="50" relative="1" as="geometry">
            <mxPoint x="330" y="484.73" as="sourcePoint" />
            <mxPoint x="370" y="484.73" as="targetPoint" />
          </mxGeometry>
        </mxCell>
        <mxCell id="7IxAQgNToezBiFUi0bHz-42" value="" style="endArrow=classic;startArrow=classic;html=1;rounded=0;fontSize=14;" edge="1" parent="1">
          <mxGeometry width="50" height="50" relative="1" as="geometry">
            <mxPoint x="330" y="524.73" as="sourcePoint" />
            <mxPoint x="370" y="524.73" as="targetPoint" />
          </mxGeometry>
        </mxCell>
      </root>
    </mxGraphModel>
  </diagram>
</mxfile>
